<svg width="1400" height="1000" viewBox="0 0 1400 1000" fill="none" xmlns="http://www.w3.org/2000/svg">
  <defs>
    <linearGradient id="bg" x1="0" y1="0" x2="1400" y2="1000" gradientUnits="userSpaceOnUse">
      <stop stop-color="#020912"/>
      <stop offset="1" stop-color="#091A30"/>
    </linearGradient>
    <radialGradient id="glowA" cx="0" cy="0" r="1" gradientUnits="userSpaceOnUse" gradientTransform="translate(830 420) rotate(90) scale(420 420)">
      <stop stop-color="#C9A96E" stop-opacity="0.45"/>
      <stop offset="1" stop-color="#C9A96E" stop-opacity="0"/>
    </radialGradient>
    <radialGradient id="glowB" cx="0" cy="0" r="1" gradientUnits="userSpaceOnUse" gradientTransform="translate(530 320) rotate(90) scale(260 260)">
      <stop stop-color="#4FA3FF" stop-opacity="0.35"/>
      <stop offset="1" stop-color="#4FA3FF" stop-opacity="0"/>
    </radialGradient>
    <linearGradient id="panel" x1="420" y1="260" x2="980" y2="740" gradientUnits="userSpaceOnUse">
      <stop stop-color="#102640" stop-opacity="0.95"/>
      <stop offset="1" stop-color="#0A182B" stop-opacity="0.95"/>
    </linearGradient>
    <linearGradient id="line" x1="0" y1="0" x2="1" y2="0">
      <stop stop-color="#C9A96E" stop-opacity="0.7"/>
      <stop offset="1" stop-color="#4FA3FF" stop-opacity="0.5"/>
    </linearGradient>
  </defs>

  <rect width="1400" height="1000" fill="url(#bg)"/>

  <g opacity="0.18">
    <path d="M0 0H1400V1000H0V0Z" stroke="#5A759A" stroke-width="1"/>
    <path d="M0 100H1400M0 200H1400M0 300H1400M0 400H1400M0 500H1400M0 600H1400M0 700H1400M0 800H1400M0 900H1400" stroke="#5A759A" stroke-width="1"/>
    <path d="M100 0V1000M200 0V1000M300 0V1000M400 0V1000M500 0V1000M600 0V1000M700 0V1000M800 0V1000M900 0V1000M1000 0V1000M1100 0V1000M1200 0V1000M1300 0V1000" stroke="#5A759A" stroke-width="1"/>
  </g>

  <circle cx="830" cy="420" r="420" fill="url(#glowA)"/>
  <circle cx="530" cy="320" r="260" fill="url(#glowB)"/>

  <rect x="420" y="260" width="560" height="340" rx="24" fill="url(#panel)" stroke="#2A4869"/>
  <rect x="455" y="305" width="490" height="14" rx="7" fill="#264A72"/>
  <rect x="455" y="336" width="320" height="12" rx="6" fill="#1F3A59"/>
  <rect x="455" y="358" width="270" height="12" rx="6" fill="#1F3A59"/>

  <rect x="455" y="410" width="90" height="120" rx="14" fill="#142D49"/>
  <rect x="560" y="386" width="90" height="144" rx="14" fill="#1A395C"/>
  <rect x="665" y="430" width="90" height="100" rx="14" fill="#142D49"/>
  <rect x="770" y="368" width="90" height="162" rx="14" fill="#275279"/>
  <rect x="875" y="450" width="70" height="80" rx="14" fill="#142D49"/>

  <g>
    <circle cx="350" cy="760" r="54" fill="#122742" stroke="#35597C" stroke-width="2"/>
    <circle cx="350" cy="734" r="18" fill="#89B8E8"/>
    <rect x="320" y="754" width="60" height="36" rx="18" fill="#89B8E8"/>
  </g>
  <g>
    <circle cx="1040" cy="760" r="54" fill="#122742" stroke="#35597C" stroke-width="2"/>
    <circle cx="1040" cy="734" r="18" fill="#E6C58D"/>
    <rect x="1010" y="754" width="60" height="36" rx="18" fill="#E6C58D"/>
  </g>
  <g>
    <circle cx="700" cy="830" r="58" fill="#122742" stroke="#35597C" stroke-width="2"/>
    <circle cx="700" cy="802" r="18" fill="#9FD3A7"/>
    <rect x="668" y="822" width="64" height="38" rx="19" fill="#9FD3A7"/>
  </g>

  <path d="M400 740L560 610" stroke="url(#line)" stroke-width="3" stroke-linecap="round"/>
  <path d="M1000 740L845 610" stroke="url(#line)" stroke-width="3" stroke-linecap="round"/>
  <path d="M700 772L700 612" stroke="url(#line)" stroke-width="3" stroke-linecap="round"/>

  <circle cx="560" cy="610" r="8" fill="#C9A96E"/>
  <circle cx="845" cy="610" r="8" fill="#4FA3FF"/>
  <circle cx="700" cy="612" r="8" fill="#9FD3A7"/>
</svg>
